<svg width="32" height="32" viewBox="0 0 32 32" fill="none" xmlns="http://www.w3.org/2000/svg">
<path d="M31.433 30.8733H21.2954L20.6724 26.7434C20.6724 26.4752 20.8423 25.2416 20.9555 24.9197L22.7113 22.3988C22.8245 22.2379 22.8812 22.077 22.9378 21.8625L23.3343 15.9089C23.3343 15.8553 23.3909 15.8016 23.3909 15.8016C23.3909 15.8016 23.4475 15.8016 23.4475 15.748L26.3927 13.5489C27.3555 12.9589 28.0918 12.1007 28.3749 11.028L28.8847 9.36529L29.2245 8.34621C29.451 7.64894 29.2245 6.89804 28.6581 6.41531C28.0918 5.87895 27.2422 5.77168 26.3927 6.03986C26.2794 6.09349 26.2227 6.09349 26.1095 6.14713C25.8263 6.30804 25.5997 6.52258 25.4865 6.89804L24.9767 8.50712C24.6369 9.57984 23.844 10.438 22.8245 10.9207L22.7679 10.9744L24.0706 8.98984C24.467 8.39984 24.6369 7.75621 24.6369 7.05894V2.92897C24.6369 2.17806 24.1838 1.4808 23.4475 1.21262C22.6546 0.890801 21.7485 1.05171 21.0122 1.69534L20.8989 1.80261C20.729 2.01716 20.6724 2.28534 20.6724 2.55352V5.39623C20.6724 6.41531 20.2759 7.38076 19.5963 8.13166L19.7662 7.75621C20.106 7.11258 20.1626 6.36167 19.9927 5.66441L19.3697 2.8217L19.0865 1.53443C18.9166 0.837165 18.4069 0.300804 17.6706 0.0862601C16.9343 -0.128284 16.1414 0.139896 15.5184 0.729892C15.5184 0.837164 15.4052 0.944437 15.4052 0.998073C15.1786 1.26625 15.122 1.58807 15.1786 1.96352L15.8582 5.02077C16.0282 5.87895 15.9715 6.79076 15.5751 7.5953L15.2352 8.23894L14.9521 5.98622C14.8388 4.9135 14.2724 3.89442 13.3662 3.14351L10.1946 0.461712C9.74149 0.0862601 9.17513 -0.0746479 8.60876 0.0326241C8.0424 0.0862601 7.53267 0.408076 7.19285 0.890801C6.9663 1.26625 6.79639 1.74898 6.85303 2.2317C6.85303 2.55352 7.02294 2.87533 7.30612 3.08988L10.1946 5.44986C10.591 5.77168 10.8176 6.2544 10.8176 6.73713V10.1698C10.8176 10.3844 10.8176 10.5453 10.761 10.7062L9.62822 14.4071C9.62822 14.4607 9.57158 14.5144 9.51495 14.5144C9.45831 14.5144 9.40168 14.5144 9.34504 14.4607L7.24948 12.4762C7.07957 12.3153 6.9663 12.0471 6.9663 11.7789V6.41531C6.9663 5.98622 6.79639 5.61077 6.56984 5.23532C6.17339 4.75259 5.60702 4.48441 4.98402 4.48441C3.90792 4.48441 2.83183 5.55713 2.83183 6.57622L2.77519 8.39984L2.49201 14.6756C2.49201 15.2656 2.66192 15.8556 3.00174 16.3383L10.591 26.7437C10.591 26.7973 10.6477 26.7973 10.6477 26.8509L10.0813 30.9273H0.566366C0.226546 30.9273 0 31.1418 0 31.4636C0 31.7855 0.226546 32 0.566366 32H10.5914H10.648H20.8426H20.8992H31.4336C31.7735 32 32 31.7855 32 31.4636C32 31.1418 31.7168 30.8736 31.4336 30.8736L31.433 30.8733Z" fill="white"/>
</svg>
