<svg width="14" height="14" viewBox="0 0 14 14" fill="none" xmlns="http://www.w3.org/2000/svg">
<path d="M13.8673 12.2873L10.359 8.76609C11.8478 6.52665 11.553 3.55062 9.65145 1.65007C8.57541 0.589292 7.16024 0 5.64198 0C4.12368 0 2.70857 0.589266 1.64724 1.65007C-0.549079 3.86001 -0.549079 7.44012 1.64724 9.63533C3.54884 11.5359 6.52642 11.8306 8.76701 10.3573L12.29 13.8784C12.4522 14.0405 12.7323 14.0405 12.8944 13.8784L13.8674 12.906C14.0442 12.7293 14.0442 12.4494 13.8674 12.2873H13.8673ZM8.35424 8.35356C6.86546 9.84156 4.43321 9.84156 2.92966 8.35356C1.44087 6.86556 1.44087 4.43459 2.92966 2.93183C4.41844 1.44383 6.85069 1.44383 8.35424 2.93183C9.84303 4.43452 9.84303 6.86553 8.35424 8.35356Z" fill="#4B4B4B"/>
</svg>
