<svg width="41" height="41" viewBox="0 0 41 41" fill="none" xmlns="http://www.w3.org/2000/svg">
<path d="M39.2779 19.1575H39.0449L33.1366 19.1717L32.8504 19.1758C31.9439 19.2472 31.2279 20.0086 31.2298 20.9355C31.2298 21.9095 32.0194 22.6972 32.9937 22.7012H39.3213C40.2309 22.6217 40.9449 21.8581 40.9427 20.9284C40.9406 19.9863 40.2077 19.2151 39.2779 19.1574L39.2779 19.1575ZM30.717 13.6689L30.7211 13.6649L34.9682 9.4267L35.192 9.19891C35.7788 8.5041 35.7395 7.45742 35.084 6.80186C34.4173 6.1383 33.3514 6.11014 32.6517 6.72634L32.4892 6.89161L28.3215 11.0763L28.1219 11.2781C27.532 11.9707 27.5632 13.0115 28.2197 13.668C28.9089 14.3566 30.0271 14.3566 30.717 13.6689L30.717 13.6689ZM20.9423 0.952393C19.9984 0.952393 19.2249 1.68744 19.1665 2.6141L19.1674 2.84808L19.1844 8.74831V9.03367C19.2599 9.94237 20.0212 10.6561 20.947 10.6561C21.9231 10.6561 22.7136 9.86656 22.7136 8.89351V8.88547L22.7167 2.8915L22.7173 2.5721C22.6365 1.66253 21.8711 0.952546 20.9424 0.952546L20.9423 0.952393ZM13.6689 11.1605L9.42757 6.92227L9.19979 6.69541C8.50187 6.1117 7.45639 6.14699 6.79997 6.80343C6.13238 7.47008 6.10731 8.53787 6.72228 9.23264L6.88662 9.39791L11.0766 13.5575L11.2793 13.7593C11.975 14.3501 13.0187 14.3149 13.6733 13.6624C14.3641 12.9698 14.3641 11.8565 13.6754 11.1676L13.6689 11.1605ZM9.03229 22.6822C9.94186 22.6117 10.6568 21.8503 10.6568 20.9237C10.6547 19.9466 9.86639 19.1611 8.89213 19.158L2.56231 19.1577C1.65361 19.2373 0.940851 20.0008 0.942753 20.9274C0.942753 21.8723 1.67687 22.6418 2.6066 22.7002H2.83965L8.74789 22.681H9.03231L9.03229 22.6822ZM11.1668 28.1869L11.1619 28.1941L6.91655 32.4332L6.69155 32.657C6.10661 33.3549 6.14313 34.4004 6.79957 35.054C7.46808 35.7195 8.53211 35.7479 9.23187 35.1336L9.39622 34.9671L13.563 30.7824L13.7635 30.5819C14.3534 29.888 14.3212 28.8435 13.6657 28.191C12.9731 27.5024 11.8577 27.5024 11.1668 28.187V28.1869ZM22.6981 32.8266C22.6254 31.9192 21.8621 31.2042 20.9365 31.2042C19.9594 31.2042 19.1699 31.9937 19.1699 32.9668V32.9739L19.1668 38.9688L19.1677 39.2885C19.2485 40.1941 20.0117 40.9069 20.9423 40.9069C21.8863 40.9069 22.6566 40.1709 22.7169 39.2452V39.0112L22.6977 33.111L22.6981 32.8266ZM34.9971 32.4627L30.8062 28.303L30.6056 28.1012C29.9108 27.5104 28.8663 27.5426 28.2107 28.199C27.5209 28.8877 27.5199 30.004 28.2098 30.6939L28.216 30.701L32.4564 34.9401L32.6842 35.1621C33.384 35.7501 34.4289 35.7136 35.084 35.0581C35.7516 34.3886 35.7767 33.3246 35.1636 32.6279L34.9971 32.4627Z" fill="#4B4B4B"/>
</svg>
