<svg width="16" height="16" viewBox="0 0 16 16" fill="none" xmlns="http://www.w3.org/2000/svg">
<path d="M15.7165 15.4367H10.6477L10.3362 13.3717C10.3362 13.2376 10.4211 12.6208 10.4778 12.4599L11.3556 11.1994C11.4123 11.119 11.4406 11.0385 11.4689 10.9312L11.6671 7.95444C11.6671 7.92763 11.6955 7.90081 11.6955 7.90081C11.6955 7.90081 11.7238 7.90081 11.7238 7.87399L13.1963 6.77445C13.6777 6.47945 14.0459 6.05036 14.1875 5.514L14.4423 4.68265L14.6122 4.1731C14.7255 3.82447 14.6122 3.44902 14.3291 3.20766C14.0459 2.93948 13.6211 2.88584 13.1963 3.01993C13.1397 3.04675 13.1114 3.04675 13.0547 3.07357C12.9131 3.15402 12.7999 3.26129 12.7432 3.44902L12.4884 4.25356C12.3185 4.78992 11.922 5.21901 11.4123 5.46037L11.384 5.48719L12.0353 4.49492C12.2335 4.19992 12.3185 3.87811 12.3185 3.52947V1.46448C12.3185 1.08903 12.0919 0.740398 11.7238 0.606308C11.3273 0.4454 10.8742 0.525854 10.5061 0.84767L10.4495 0.901306C10.3645 1.00858 10.3362 1.14267 10.3362 1.27676V2.69811C10.3362 3.20766 10.138 3.69038 9.79813 4.06583L9.88309 3.87811C10.053 3.55629 10.0813 3.18084 9.99636 2.8322L9.68486 1.41085L9.54327 0.767216C9.45831 0.418582 9.20345 0.150402 8.83531 0.0431301C8.46717 -0.064142 8.07071 0.0699481 7.75921 0.364946C7.75921 0.418582 7.70258 0.472218 7.70258 0.499036C7.5893 0.633126 7.56099 0.794034 7.5893 0.98176L7.92912 2.51039C8.01408 2.93948 7.98576 3.39538 7.78753 3.79765L7.61762 4.11947L7.47603 2.99311C7.41939 2.45675 7.13621 1.94721 6.68312 1.57176L5.09729 0.230856C4.87075 0.0431301 4.58756 -0.037324 4.30438 0.0163121C4.0212 0.0431301 3.76633 0.204038 3.59642 0.4454C3.48315 0.633126 3.3982 0.874488 3.42651 1.11585C3.42651 1.27676 3.51147 1.43767 3.65306 1.54494L5.09729 2.72493C5.29552 2.88584 5.40879 3.1272 5.40879 3.36856V5.08492C5.40879 5.19219 5.40879 5.27264 5.38048 5.3531L4.81411 7.20354C4.81411 7.23036 4.78579 7.25718 4.75747 7.25718C4.72916 7.25718 4.70084 7.25718 4.67252 7.23036L3.62474 6.23809C3.53979 6.15764 3.48315 6.02355 3.48315 5.88946V3.20766C3.48315 2.99311 3.3982 2.80539 3.28492 2.61766C3.08669 2.3763 2.80351 2.24221 2.49201 2.24221C1.95396 2.24221 1.41591 2.77857 1.41591 3.28811L1.3876 4.19992L1.246 7.33778C1.246 7.63278 1.33096 7.92778 1.50087 8.16914L5.29552 13.3718C5.29552 13.3987 5.32384 13.3987 5.32384 13.4255L5.04066 15.4636H0.283183C0.113273 15.4636 0 15.5709 0 15.7318C0 15.8927 0.113273 16 0.283183 16H5.29568H5.324H10.4213H10.4496H15.7168C15.8867 16 16 15.8927 16 15.7318C16 15.5709 15.8584 15.4368 15.7168 15.4368L15.7165 15.4367Z" fill="white"/>
</svg>
